<svg width="347" height="300" viewBox="0 0 347 300" fill="none" xmlns="http://www.w3.org/2000/svg">
<path d="M253.194 217.308H347L300.277 297.88" fill="#0E7B85"/>
<path d="M299.692 131.188L253.104 211.624H346.505" fill="#03958E"/>
<path d="M247.748 224.12L206.786 296.21H286.233" fill="#137C86"/>
<path d="M104.428 217.308L156.058 296.075L194.948 299.955L239.826 217.308" fill="#E0928D"/>
<path d="M179.914 96.0451L237.89 196.195L286.233 121.759L249.728 88.5112H211.108" fill="#B3B171"/>
<path d="M91.1498 99.9247L78.5013 115.759L76.3857 144.902L89.8444 177.248L133.236 146.21L148.27 101.504" fill="#E59E50"/>
<path d="M256.976 102.767L268.994 118.647L270.974 147.789L258.191 180.09L217.095 149.053L202.826 104.346" fill="#B3B171"/>
<path d="M273.45 83.7745L250.223 43.985L250.043 43.6693L226.547 3.42865L203.185 43.6693L179.914 83.7745H226.502H227.042H273.45Z" fill="#E9D38B"/>
<path d="M145.705 300L122.433 260.211L122.253 259.94L98.8018 219.699L75.4404 259.895L52.124 300H98.7118H99.2519H145.705Z" fill="#C92032"/>
<path d="M0 217.308L23.2264 257.143L23.4063 257.413L46.9028 297.654L70.2191 257.459L93.5356 217.308H46.9478H46.4077H0Z" fill="#C4212E"/>
<path d="M127.295 0.135345L150.521 39.9248L150.701 40.1955L174.153 80.4361L197.514 40.2406L220.831 0.135345H174.243H173.703H127.295Z" fill="#FFD345"/>
<path d="M168.616 82.827L145.39 43.0376L145.209 42.7669L121.713 2.52631L98.3967 42.7218L75.0803 82.827H121.668H122.208H168.616Z" fill="#FFC83D"/>
<path d="M94.841 211.624L71.5697 171.789L71.3896 171.474L47.9383 131.233L24.5769 171.474L1.2605 211.624H47.8483H48.3884H94.841Z" fill="#ED4742"/>
<path d="M246.037 128.752L222.676 88.5564H269.083L271.109 88.6466L248.153 128.526L246.037 128.752Z" fill="#BBC07F"/>
<path d="M175.548 88.5564H222.136L198.864 128.752L175.548 88.5564Z" fill="#B6B272"/>
<path d="M293.841 128.436L270.749 168L268.003 168.992L246.038 128.752L290.915 128.256L293.841 128.436Z" fill="#BECC8A"/>
<path d="M268.319 168.451H221.731L244.912 128.617L246.037 128.752L268.634 167.955L268.319 168.451Z" fill="#BCC585"/>
<path d="M246.037 128.752L222.226 168.993L198.864 128.752H245.092H246.037Z" fill="#B1AC6C"/>
<path d="M270.749 168L246.173 210.677L221.731 168.045H267.958L270.749 168Z" fill="#B5BC7C"/>
<path d="M246.038 128.752L271.109 88.6466L275.431 88.5564L296.181 124.737L293.841 128.436L249.639 128.752H246.038Z" fill="#C0C686"/>
<path d="M246.037 128.752H198.864L222.226 88.6015L223.081 88.5564L246.037 128.752Z" fill="#B3B171"/>
<path d="M173.838 256.782L197.019 296.21L194.948 299.955L153.042 299.91L150.971 296.075L172.757 257.865L173.838 256.782Z" fill="#D6807B"/>
<path d="M150.971 296.075L127.79 256.556L128.285 253.714L175.458 253.759L152.592 293.639L150.971 296.075Z" fill="#D27C77"/>
<path d="M127.79 256.556L102.448 214.06H151.647L129.095 254.12L127.79 256.556Z" fill="#D07B73"/>
<path d="M174.738 254.662L221.101 254.391L198.099 294.496L197.019 296.211L173.522 256.602L174.738 254.662Z" fill="#D6807B"/>
<path d="M244.192 214.06L221.325 253.985L197.739 214.06H244.192Z" fill="#E0928D"/>
<path d="M174.378 254.707L197.739 213.97L221.326 253.985L220.875 254.797L174.378 254.707Z" fill="#E0928D"/>
<path d="M128.555 254.256L151.647 214.06L175.008 253.759L174.378 254.707L128.87 254.752L128.555 254.256Z" fill="#C6615A"/>
<path d="M174.558 254.391L151.646 214.06H197.739L174.828 253.85L174.558 254.391Z" fill="#D98680"/>
<path d="M71.0743 171.564L47.5778 131.323L24.2166 171.564H70.4442H71.0743Z" fill="#E93B36"/>
<path d="M71.2543 171.88L48.073 211.759H94.4807L71.2543 171.88Z" fill="#EA403C"/>
<path d="M0.945068 211.759H47.5329L24.2165 171.564L0.945068 211.759Z" fill="#E42C29"/>
<path d="M71.0743 171.564H24.2166L47.5329 211.759H48.4781L71.2544 171.88L71.0743 171.564Z" fill="#ED4742"/>
<path d="M122.434 259.669L98.9371 219.429L75.5757 259.669H121.803H122.434Z" fill="#C4212E"/>
<path d="M122.613 259.985L99.387 299.865H145.84L122.613 259.985Z" fill="#C4212E"/>
<path d="M52.3044 299.865H98.8922L75.5757 259.669L52.3044 299.865Z" fill="#B92427"/>
<path d="M122.434 259.669H75.5757L98.8922 299.865H99.8374L122.614 259.985L122.434 259.669Z" fill="#C92032"/>
<path d="M23.6765 257.729L47.128 297.97L70.4894 257.729H24.2617H23.6765Z" fill="#C02529"/>
<path d="M23.4965 257.414L46.6778 217.534H0.225098L23.4965 257.414Z" fill="#C82031"/>
<path d="M93.8055 217.534H47.2178L70.4892 257.729L93.8055 217.534Z" fill="#CE2037"/>
<path d="M23.6763 257.729H70.4892L47.2178 217.534H46.2275L23.4963 257.413L23.6763 257.729Z" fill="#C4212E"/>
<path d="M145.255 42.7669L121.758 2.52631L98.4419 42.7669H144.625H145.255Z" fill="#FCB724"/>
<path d="M145.435 43.0827L122.254 82.9624H168.661L145.435 43.0827Z" fill="#FEC23A"/>
<path d="M75.1255 82.9624H121.713L98.4418 42.767L75.1255 82.9624Z" fill="#FCBB2D"/>
<path d="M145.255 42.767H98.4419L121.713 82.9624H122.659L145.435 43.0828L145.255 42.767Z" fill="#FFC83D"/>
<path d="M150.746 40.1504L174.197 80.4361L197.559 40.1504H151.331H150.746Z" fill="#FAB01F"/>
<path d="M150.521 39.8346L173.748 0H127.295L150.521 39.8346Z" fill="#FFCD41"/>
<path d="M220.83 0H174.242L197.559 40.1504L220.83 0Z" fill="#FFD345"/>
<path d="M150.746 40.1504H197.559L174.243 0H173.297L150.521 39.8346L150.746 40.1504Z" fill="#FEC23A"/>
<path d="M249.503 43.1279L226.052 2.8873L202.691 43.1279H248.918H249.503Z" fill="#E3CA83"/>
<path d="M249.683 43.4436L226.502 83.3233H272.954L249.683 43.4436Z" fill="#DEC37C"/>
<path d="M179.374 83.3233H225.962L202.691 43.1278L179.374 83.3233Z" fill="#E9D38B"/>
<path d="M249.503 43.1278H202.691L225.962 83.3233H226.952L249.684 43.4436L249.503 43.1278Z" fill="#E9D38B"/>
<path d="M271.289 259.714L247.793 219.429L224.476 259.714H270.659H271.289Z" fill="#137C86"/>
<path d="M271.469 259.985L248.288 299.865H294.696L271.469 259.985Z" fill="#137C86"/>
<path d="M201.16 299.865H247.748L224.476 259.714L201.16 299.865Z" fill="#0A6B76"/>
<path d="M271.289 259.714H224.476L247.748 299.865H248.693L271.469 259.985L271.289 259.714Z" fill="#11737E"/>
<path d="M276.331 257.639L299.827 297.88L323.143 257.639H276.916H276.331Z" fill="#096D76"/>
<path d="M276.15 257.323L299.332 217.444H252.879L276.15 257.323Z" fill="#12818F"/>
<path d="M346.46 217.444H299.872L323.143 257.639L346.46 217.444Z" fill="#0E7B85"/>
<path d="M276.33 257.639H323.143L299.872 217.444H298.882L276.15 257.323L276.33 257.639Z" fill="#0E7B85"/>
<path d="M101.458 128.752L124.909 168.993L148.271 128.752H102.043H101.458Z" fill="#E6A55D"/>
<path d="M76.3857 168L100.962 210.677L125.404 168.045H79.1765L76.3857 168Z" fill="#E6A55D"/>
<path d="M171.587 88.5564H124.999L148.271 128.752L171.587 88.5564Z" fill="#E6A55D"/>
<path d="M101.278 128.436L124.459 88.5564H78.0062L75.9807 88.6466L98.9819 128.526L101.278 128.436Z" fill="#E6A55D"/>
<path d="M53.2944 128.436L76.3858 167.955L79.0864 168.992L102.448 128.256H56.2202L53.2944 128.436Z" fill="#E6A55D"/>
<path d="M78.7715 168.451H125.404L101.953 127.895L101.278 128.436L78.5015 167.955L78.7715 168.451Z" fill="#DD923F"/>
<path d="M101.097 128.752H148.27L124.909 88.6016L123.153 89.0527L101.097 128.752Z" fill="#E59E50"/>
<path d="M101.278 128.436L75.9808 88.6466L71.7046 88.5564L50.9539 124.737L53.2946 128.436L97.5416 128.526L101.278 128.436Z" fill="#E59E50"/>
<path d="M323.189 171.429L299.737 131.188L276.376 171.429H322.604H323.189Z" fill="#008C84"/>
<path d="M323.368 171.744L300.187 211.624H346.64L323.368 171.744Z" fill="#008C84"/>
<path d="M253.104 211.624H299.692L276.376 171.429L253.104 211.624Z" fill="#005245"/>
<path d="M323.189 171.429H276.376L299.692 211.624H300.638L323.369 171.744L323.189 171.429Z" fill="#03958E"/>
</svg>
