<?xml version="1.0" encoding="utf-8"?>
<!-- Generator: Adobe Illustrator 22.0.1, SVG Export Plug-In . SVG Version: 6.00 Build 0)  -->
<svg version="1.1" id="Layer_1" xmlns="http://www.w3.org/2000/svg" xmlns:xlink="http://www.w3.org/1999/xlink" x="0px" y="0px"
	 viewBox="0 0 101.6 89" style="enable-background:new 0 0 101.6 89;" xml:space="preserve">
<title>Asset 3</title>
<g id="Layer_2_1_">
	<g id="Layer_1-2">
		<polygon points="64.7,0 37,0 50.8,24 		"/>
		<polygon points="86.6,36 81.4,27 52.6,27 72.2,61 		"/>
		<polygon points="22.5,49 29.5,61 49.1,27 20.2,27 15,36 		"/>
		<polygon points="20.8,76 27.7,64 0,64 13.9,88 		"/>
		<polygon points="70.4,64 31.2,64 45.6,89 56,89 63.5,76 		"/>
		<polygon points="101.6,64 73.9,64 87.8,88 		"/>
		<polygon points="66.4,1 52.6,25 80.2,25 		"/>
		<polygon points="35.2,1 28.3,13 21.4,25 49.1,25 		"/>
		<polygon points="20.8,50 13.9,38 0,62 27.7,62 		"/>
		<polygon points="29.5,65 22.5,77 15.6,89 43.3,89 		"/>
		<polygon points="73.9,62 101.6,62 87.8,38 		"/>
		<polygon points="72.2,65 65.2,77 58.3,89 86,89 		"/>
	</g>
</g>
</svg>
