<svg xmlns="http://www.w3.org/2000/svg" viewBox="0 0 101.61 89.03"><defs><style>.cls-1{fill:#fff;}</style></defs><title>Asset 3</title><g id="Layer_2" data-name="Layer 2"><g id="Layer_1-2" data-name="Layer 1"><polygon class="cls-1" points="64.69 0 36.98 0 50.83 24 64.69 0"/><polygon class="cls-1" points="86.6 36.03 81.39 27 52.56 27 72.17 61.03 86.6 36.03"/><polygon class="cls-1" points="22.52 49.03 29.45 61.03 49.1 27 20.23 27 15.01 36.03 22.52 49.03"/><polygon class="cls-1" points="20.78 76.03 27.71 64.03 0 64.03 13.86 88.03 20.78 76.03"/><polygon class="cls-1" points="70.44 64.03 31.18 64.03 45.61 89.03 56 89.03 63.51 76.03 70.44 64.03"/><polygon class="cls-1" points="101.61 64.03 73.9 64.03 87.76 88.03 101.61 64.03"/><polygon class="cls-1" points="66.4 1.04 52.56 25 80.23 25 66.4 1.04"/><polygon class="cls-1" points="35.24 1 28.32 13 21.39 25 49.1 25 35.24 1"/><polygon class="cls-1" points="20.78 50.03 13.86 38.03 0 62.03 27.71 62.03 20.78 50.03"/><polygon class="cls-1" points="29.45 65.03 22.52 77.03 15.59 89.03 43.3 89.03 29.45 65.03"/><polygon class="cls-1" points="73.9 62.03 101.61 62.03 87.76 38.03 73.9 62.03"/><polygon class="cls-1" points="72.17 65.03 65.24 77.03 58.31 89.03 86.03 89.03 72.17 65.03"/></g></g></svg>