<svg xmlns="http://www.w3.org/2000/svg" xmlns:xlink="http://www.w3.org/1999/xlink" viewBox="0 0 101.61 89.03"><defs><style>.cls-1{fill:#ffc239;}.cls-2{fill:url(#linear-gradient);}.cls-3{fill:url(#linear-gradient-2);}.cls-4{fill:#ee4342;}.cls-5{fill:url(#linear-gradient-3);}.cls-6{fill:#0b7b87;}.cls-7{fill:#fed87f;}.cls-8{fill:#47b2aa;}.cls-9{fill:#0a7b85;}</style><linearGradient id="linear-gradient" x1="58.39" y1="22.11" x2="83.25" y2="51.73" gradientUnits="userSpaceOnUse"><stop offset="0" stop-color="#e8d38b"/><stop offset="0.12" stop-color="#dfd18d"/><stop offset="0.31" stop-color="#c7cc91"/><stop offset="0.56" stop-color="#a0c499"/><stop offset="0.84" stop-color="#6ab9a3"/><stop offset="1" stop-color="#47b2aa"/></linearGradient><linearGradient id="linear-gradient-2" x1="43.24" y1="22.08" x2="18.36" y2="51.73" gradientUnits="userSpaceOnUse"><stop offset="0" stop-color="#ffc239"/><stop offset="0.14" stop-color="#febb39"/><stop offset="0.34" stop-color="#fca93b"/><stop offset="0.58" stop-color="#f88b3d"/><stop offset="0.84" stop-color="#f26140"/><stop offset="1" stop-color="#ee4342"/></linearGradient><linearGradient id="linear-gradient-3" x1="31.18" y1="76.53" x2="70.44" y2="76.53" gradientUnits="userSpaceOnUse"><stop offset="0" stop-color="#ee4342"/><stop offset="0.16" stop-color="#eb4443"/><stop offset="0.29" stop-color="#e04646"/><stop offset="0.42" stop-color="#ce4b4b"/><stop offset="0.54" stop-color="#b55153"/><stop offset="0.66" stop-color="#95595c"/><stop offset="0.78" stop-color="#6e6268"/><stop offset="0.89" stop-color="#406e75"/><stop offset="1" stop-color="#0b7b85"/><stop offset="1" stop-color="#0a7b85"/></linearGradient></defs><title>Asset 2</title><g id="Layer_2" data-name="Layer 2"><g id="Layer_1-2" data-name="Layer 1"><polygon class="cls-1" points="64.69 0 36.98 0 50.83 24 64.69 0"/><polygon class="cls-2" points="86.6 36.03 81.39 27 52.56 27 72.17 61.03 86.6 36.03"/><polygon class="cls-3" points="22.52 49.03 29.45 61.03 49.1 27 20.23 27 15.01 36.03 22.52 49.03"/><polygon class="cls-4" points="20.78 76.03 27.71 64.03 0 64.03 13.86 88.03 20.78 76.03"/><polygon class="cls-5" points="70.44 64.03 31.18 64.03 45.61 89.03 56 89.03 63.51 76.03 70.44 64.03"/><polygon class="cls-6" points="101.61 64.03 73.9 64.03 87.76 88.03 101.61 64.03"/><polygon class="cls-7" points="66.4 1.04 52.56 25 80.23 25 66.4 1.04"/><polygon class="cls-1" points="35.24 1 28.32 13 21.39 25 49.1 25 35.24 1"/><polygon class="cls-4" points="20.78 50.03 13.86 38.03 0 62.03 27.71 62.03 20.78 50.03"/><polygon class="cls-4" points="29.45 65.03 22.52 77.03 15.59 89.03 43.3 89.03 29.45 65.03"/><polygon class="cls-8" points="73.9 62.03 101.61 62.03 87.76 38.03 73.9 62.03"/><polygon class="cls-9" points="72.17 65.03 65.24 77.03 58.31 89.03 86.03 89.03 72.17 65.03"/></g></g></svg>